<mxfile host="65bd71144e">
    <diagram id="N3MXsoLkmZThQ2AGxBQy" name="Page-1">
        <mxGraphModel dx="956" dy="862" grid="1" gridSize="10" guides="1" tooltips="1" connect="1" arrows="1" fold="1" page="1" pageScale="1" pageWidth="850" pageHeight="1100" math="0" shadow="0">
            <root>
                <mxCell id="0"/>
                <mxCell id="1" parent="0"/>
                <mxCell id="2" value="Subautoload&lt;br&gt;class" style="rounded=0;whiteSpace=wrap;html=1;" vertex="1" parent="1">
                    <mxGeometry x="1220" y="510" width="120" height="60" as="geometry"/>
                </mxCell>
                <mxCell id="3" value="autoloads" style="rounded=0;whiteSpace=wrap;html=1;" vertex="1" parent="1">
                    <mxGeometry x="1385" y="660" width="120" height="60" as="geometry"/>
                </mxCell>
                <mxCell id="5" value="game_handler" style="rounded=0;whiteSpace=wrap;html=1;" vertex="1" parent="1">
                    <mxGeometry x="1195" y="660" width="120" height="60" as="geometry"/>
                </mxCell>
                <mxCell id="6" value="autoloads" style="rounded=0;whiteSpace=wrap;html=1;" vertex="1" parent="1">
                    <mxGeometry x="1525" y="660" width="120" height="60" as="geometry"/>
                </mxCell>
                <mxCell id="7" value="game object" style="rounded=0;whiteSpace=wrap;html=1;" vertex="1" parent="1">
                    <mxGeometry x="1100" y="810" width="120" height="60" as="geometry"/>
                </mxCell>
                <mxCell id="9" value="game object" style="rounded=0;whiteSpace=wrap;html=1;" vertex="1" parent="1">
                    <mxGeometry x="1265" y="810" width="120" height="60" as="geometry"/>
                </mxCell>
                <mxCell id="10" value="game object" style="rounded=0;whiteSpace=wrap;html=1;" vertex="1" parent="1">
                    <mxGeometry x="1315" y="970" width="120" height="60" as="geometry"/>
                </mxCell>
                <mxCell id="11" value="" style="endArrow=none;html=1;entryX=0.5;entryY=0;entryDx=0;entryDy=0;" edge="1" parent="1" source="2" target="3">
                    <mxGeometry width="50" height="50" relative="1" as="geometry">
                        <mxPoint x="1295" y="830" as="sourcePoint"/>
                        <mxPoint x="1345" y="780" as="targetPoint"/>
                    </mxGeometry>
                </mxCell>
                <mxCell id="12" value="" style="endArrow=none;html=1;entryX=0.5;entryY=0;entryDx=0;entryDy=0;" edge="1" parent="1" source="2" target="6">
                    <mxGeometry width="50" height="50" relative="1" as="geometry">
                        <mxPoint x="1290" y="580" as="sourcePoint"/>
                        <mxPoint x="1455" y="670" as="targetPoint"/>
                    </mxGeometry>
                </mxCell>
                <mxCell id="13" value="" style="endArrow=none;html=1;" edge="1" parent="1" source="2" target="5">
                    <mxGeometry width="50" height="50" relative="1" as="geometry">
                        <mxPoint x="1300" y="590" as="sourcePoint"/>
                        <mxPoint x="1465" y="680" as="targetPoint"/>
                    </mxGeometry>
                </mxCell>
                <mxCell id="14" value="" style="endArrow=none;html=1;entryX=0.5;entryY=0;entryDx=0;entryDy=0;" edge="1" parent="1" source="5" target="9">
                    <mxGeometry width="50" height="50" relative="1" as="geometry">
                        <mxPoint x="1290" y="580" as="sourcePoint"/>
                        <mxPoint x="1265" y="670" as="targetPoint"/>
                    </mxGeometry>
                </mxCell>
                <mxCell id="15" value="" style="endArrow=none;html=1;exitX=0.5;exitY=0;exitDx=0;exitDy=0;" edge="1" parent="1" source="10" target="9">
                    <mxGeometry width="50" height="50" relative="1" as="geometry">
                        <mxPoint x="1265" y="730" as="sourcePoint"/>
                        <mxPoint x="1335" y="820" as="targetPoint"/>
                    </mxGeometry>
                </mxCell>
                <mxCell id="16" value="" style="endArrow=none;html=1;exitX=0.5;exitY=0;exitDx=0;exitDy=0;entryX=0.5;entryY=1;entryDx=0;entryDy=0;" edge="1" parent="1" source="7" target="5">
                    <mxGeometry width="50" height="50" relative="1" as="geometry">
                        <mxPoint x="1385" y="980" as="sourcePoint"/>
                        <mxPoint x="1335" y="880" as="targetPoint"/>
                    </mxGeometry>
                </mxCell>
                <mxCell id="17" value="" style="endArrow=classic;html=1;" edge="1" parent="1">
                    <mxGeometry width="50" height="50" relative="1" as="geometry">
                        <mxPoint x="1375" y="770" as="sourcePoint"/>
                        <mxPoint x="1455" y="920" as="targetPoint"/>
                    </mxGeometry>
                </mxCell>
                <mxCell id="19" value="Notify game objects that child and the object is ready" style="text;html=1;strokeColor=none;fillColor=none;align=center;verticalAlign=middle;whiteSpace=wrap;rounded=0;" vertex="1" parent="1">
                    <mxGeometry x="920" y="770" width="140" height="30" as="geometry"/>
                </mxCell>
                <mxCell id="20" value="" style="endArrow=classic;html=1;" edge="1" parent="1">
                    <mxGeometry width="50" height="50" relative="1" as="geometry">
                        <mxPoint x="1005" y="870" as="sourcePoint"/>
                        <mxPoint x="1145" y="720" as="targetPoint"/>
                    </mxGeometry>
                </mxCell>
                <mxCell id="21" value="Binding subautoloads to game objects" style="text;html=1;strokeColor=none;fillColor=none;align=center;verticalAlign=middle;whiteSpace=wrap;rounded=0;" vertex="1" parent="1">
                    <mxGeometry x="1435" y="830" width="140" height="30" as="geometry"/>
                </mxCell>
                <mxCell id="22" value="" style="endArrow=classic;html=1;startArrow=classic;startFill=1;" edge="1" parent="1">
                    <mxGeometry width="50" height="50" relative="1" as="geometry">
                        <mxPoint x="1380" y="560" as="sourcePoint"/>
                        <mxPoint x="1565" y="620" as="targetPoint"/>
                    </mxGeometry>
                </mxCell>
                <mxCell id="23" value="Subautoload instance check all child as an autoload" style="text;html=1;strokeColor=none;fillColor=none;align=center;verticalAlign=middle;whiteSpace=wrap;rounded=0;" vertex="1" parent="1">
                    <mxGeometry x="1435" y="540" width="140" height="30" as="geometry"/>
                </mxCell>
                <mxCell id="24" value="&lt;h1&gt;Subautoload Header&lt;/h1&gt;&lt;div&gt;&lt;br&gt;&lt;/div&gt;" style="text;html=1;strokeColor=none;fillColor=none;spacing=5;spacingTop=-20;whiteSpace=wrap;overflow=hidden;rounded=0;" vertex="1" parent="1">
                    <mxGeometry x="130" y="80" width="285" height="120" as="geometry"/>
                </mxCell>
                <mxCell id="26" value="Subautoload&lt;br&gt;Handler" style="rounded=0;whiteSpace=wrap;html=1;" vertex="1" parent="1">
                    <mxGeometry x="1120" y="270" width="120" height="60" as="geometry"/>
                </mxCell>
                <mxCell id="28" value="" style="endArrow=classic;html=1;exitX=0.5;exitY=1;exitDx=0;exitDy=0;" edge="1" parent="1" source="26" target="2">
                    <mxGeometry width="50" height="50" relative="1" as="geometry">
                        <mxPoint x="1200" y="420" as="sourcePoint"/>
                        <mxPoint x="1180" y="610" as="targetPoint"/>
                    </mxGeometry>
                </mxCell>
                <mxCell id="29" value="Creating instance of subautoload" style="text;html=1;strokeColor=none;fillColor=none;align=center;verticalAlign=middle;whiteSpace=wrap;rounded=0;" vertex="1" parent="1">
                    <mxGeometry x="1220" y="350" width="140" height="30" as="geometry"/>
                </mxCell>
                <mxCell id="31" value="Subautoload&lt;br&gt;class" style="rounded=0;whiteSpace=wrap;html=1;" vertex="1" parent="1">
                    <mxGeometry x="1020" y="510" width="120" height="60" as="geometry"/>
                </mxCell>
                <mxCell id="32" value="" style="endArrow=classic;html=1;exitX=0.5;exitY=1;exitDx=0;exitDy=0;" edge="1" parent="1" source="26" target="31">
                    <mxGeometry width="50" height="50" relative="1" as="geometry">
                        <mxPoint x="1204.2857142857142" y="340" as="sourcePoint"/>
                        <mxPoint x="1290" y="520" as="targetPoint"/>
                    </mxGeometry>
                </mxCell>
                <mxCell id="34" value="Another instance of subautoload or game" style="text;html=1;strokeColor=none;fillColor=none;align=center;verticalAlign=middle;whiteSpace=wrap;rounded=0;" vertex="1" parent="1">
                    <mxGeometry x="920" y="460" width="135" height="30" as="geometry"/>
                </mxCell>
                <mxCell id="35" value="Main subautoload/game" style="text;html=1;strokeColor=none;fillColor=none;align=center;verticalAlign=middle;whiteSpace=wrap;rounded=0;" vertex="1" parent="1">
                    <mxGeometry x="1320" y="470" width="140" height="30" as="geometry"/>
                </mxCell>
                <mxCell id="36" value="&lt;h1&gt;Autoloads&lt;/h1&gt;&lt;div&gt;When subautoload ready, the class will check all first layer of its child to register it as &quot;autoload instance&quot;.&lt;/div&gt;" style="text;html=1;strokeColor=none;fillColor=none;spacing=5;spacingTop=-20;whiteSpace=wrap;overflow=hidden;rounded=0;" vertex="1" parent="1">
                    <mxGeometry x="130" y="340" width="285" height="120" as="geometry"/>
                </mxCell>
                <mxCell id="37" value="game object" style="rounded=0;whiteSpace=wrap;html=1;" vertex="1" parent="1">
                    <mxGeometry x="1020" y="1080" width="120" height="60" as="geometry"/>
                </mxCell>
                <mxCell id="38" value="" style="endArrow=classic;html=1;" edge="1" parent="1" source="7" target="37">
                    <mxGeometry width="50" height="50" relative="1" as="geometry">
                        <mxPoint x="1320" y="950" as="sourcePoint"/>
                        <mxPoint x="1370" y="900" as="targetPoint"/>
                    </mxGeometry>
                </mxCell>
                <mxCell id="39" value="Creating subautoload" style="text;html=1;strokeColor=none;fillColor=none;align=center;verticalAlign=middle;whiteSpace=wrap;rounded=0;" vertex="1" parent="1">
                    <mxGeometry x="1040" y="910" width="80" height="30" as="geometry"/>
                </mxCell>
                <mxCell id="40" value="" style="curved=1;endArrow=classic;html=1;exitX=0;exitY=0.5;exitDx=0;exitDy=0;" edge="1" parent="1" source="37" target="2">
                    <mxGeometry width="50" height="50" relative="1" as="geometry">
                        <mxPoint x="1080" y="880" as="sourcePoint"/>
                        <mxPoint x="1130" y="830" as="targetPoint"/>
                        <Array as="points">
                            <mxPoint x="760" y="720"/>
                            <mxPoint x="1110" y="690"/>
                        </Array>
                    </mxGeometry>
                </mxCell>
                <mxCell id="41" value="Then this class forwarded to the subautoload root" style="text;html=1;strokeColor=none;fillColor=none;align=center;verticalAlign=middle;whiteSpace=wrap;rounded=0;" vertex="1" parent="1">
                    <mxGeometry x="790" y="985" width="150" height="30" as="geometry"/>
                </mxCell>
                <mxCell id="42" value="&lt;h1&gt;Binding Subautoload&lt;/h1&gt;&lt;div&gt;After all autoloads registered, subautoload will recursively check (DFS) its tree. Subautoload will bind itself with the child. After subautoload bind a class and checked recursively its child, subautoload then can safely call &quot;on_object_ready&quot; function to the class.&amp;nbsp;&lt;/div&gt;" style="text;html=1;strokeColor=none;fillColor=none;spacing=5;spacingTop=-20;whiteSpace=wrap;overflow=hidden;rounded=0;" vertex="1" parent="1">
                    <mxGeometry x="130" y="520" width="285" height="140" as="geometry"/>
                </mxCell>
                <mxCell id="43" value="&lt;h1&gt;Subautoload Compatible Class&lt;/h1&gt;&lt;div&gt;A regular class cannot be bound and readied by a subautoload root. In order the class can be readied by subautoload, a class should be or inherited by a class that is a subautoload compatible.&lt;/div&gt;" style="text;html=1;strokeColor=none;fillColor=none;spacing=5;spacingTop=-20;whiteSpace=wrap;overflow=hidden;rounded=0;" vertex="1" parent="1">
                    <mxGeometry x="130" y="700" width="285" height="140" as="geometry"/>
                </mxCell>
            </root>
        </mxGraphModel>
    </diagram>
</mxfile>